<svg xmlns="http://www.w3.org/2000/svg" viewBox="0 0 172 172"><path d="M28.667 22.933c-6.335 0-11.467 5.131-11.467 11.467v22.933h137.6V34.4c0-6.335-5.131-11.467-11.467-11.467zM34.4 34.4c3.165 0 5.733 2.569 5.733 5.733s-2.569 5.733-5.733 5.733-5.733-2.569-5.733-5.733S31.235 34.4 34.4 34.4zm22.933 0c3.165 0 5.733 2.569 5.733 5.733s-2.569 5.733-5.733 5.733-5.733-2.569-5.733-5.733 2.569-5.733 5.733-5.733zM17.2 68.8v74.533c0 3.166 2.567 5.733 5.733 5.733h126.133c3.166 0 5.733-2.567 5.733-5.733V68.8h-11.467v68.8H28.667V68.8zm22.933 0v57.333h40.133V68.8zm57.333 0c-2.068-.029-3.991 1.057-5.033 2.843s-1.042 3.995 0 5.781 2.966 2.872 5.033 2.843h28.667c2.068.029 3.991-1.057 5.033-2.843s1.042-3.995 0-5.781-2.966-2.872-5.033-2.843zm0 22.933c-2.068-.029-3.991 1.057-5.033 2.843s-1.042 3.995 0 5.781 2.966 2.872 5.033 2.843h28.667c2.068.029 3.991-1.057 5.033-2.843s1.042-3.995 0-5.781-2.966-2.872-5.033-2.843zm0 22.933c-2.068-.029-3.991 1.057-5.033 2.843s-1.042 3.995 0 5.781 2.966 2.872 5.033 2.843h28.667c2.068.029 3.991-1.057 5.033-2.843s1.042-3.995 0-5.781-2.966-2.872-5.033-2.843z" fill="#fff"/></svg>