<svg xmlns="http://www.w3.org/2000/svg" viewBox="0 0 172 172"><path d="M45.867 17.2c-9.5 0-17.2 7.7-17.2 17.2v103.2c0 1.526.609 2.989 1.691 4.065 2.023 7.247 7.657 13.135 15.509 13.135H51.6v-11.467h-5.733c-3.24 0-5.733-2.494-5.733-5.733s2.494-5.733 5.733-5.733h86c6.335 0 11.467-5.131 11.467-11.467V28.667c0-6.335-5.131-11.467-11.467-11.467zM51.6 34.4h5.733c3.165 0 5.733 2.569 5.733 5.733v5.733c0 3.165-2.569 5.733-5.733 5.733H51.6c-3.165 0-5.733-2.569-5.733-5.733v-5.733c0-3.165 2.569-5.733 5.733-5.733zm0 28.667h5.733c3.165 0 5.733 2.569 5.733 5.733v5.733c0 3.165-2.569 5.733-5.733 5.733H51.6c-3.165 0-5.733-2.569-5.733-5.733V68.8c0-3.165 2.569-5.733 5.733-5.733zm0 28.667h5.733c3.165 0 5.733 2.569 5.733 5.733v5.733c0 3.165-2.569 5.733-5.733 5.733H51.6c-3.165 0-5.733-2.569-5.733-5.733v-5.733c0-3.165 2.569-5.733 5.733-5.733zm11.467 51.6V172l17.2-11.467L97.467 172v-28.667zm45.867 0V154.8H137.6c3.166 0 5.733-2.567 5.733-5.733s-2.567-5.733-5.733-5.733z" fill="#fff"/></svg>