<svg xmlns="http://www.w3.org/2000/svg" viewBox="0 0 172 172" fill="#fff"><path d="M99.231 0L0 19.019v133.962L99.231 172zm6.615 19.846v19.639h20.053v13.438h-20.053v13.231h19.846v13.231h-19.846v13.231h19.846v13.231h-19.846v13.231h19.846v13.231h-19.846v19.846h60.572c3.049 0 5.582-2.61 5.582-5.788V25.635c0-3.178-2.532-5.788-5.582-5.788zm26.462 19.846h26.462v13.231h-26.462zM20.466 52.51h18.192l9.716 20.26a33.5 33.5 0 0 1 2.067 5.582c.388-1.318 1.24-3.204 2.274-5.788L63.26 52.51h16.745L59.952 85.793l20.673 33.904H62.846L51.269 97.784c-.439-.801-.982-2.377-1.447-4.548h-.207c-.207 1.034-.646 2.662-1.447 4.755l-11.577 21.707H18.606l21.293-33.49zm111.841 13.644h26.462v13.231h-26.462zm0 26.462h26.462v13.231h-26.462zm0 26.462h26.462v13.231h-26.462z"/></svg>