<svg xmlns="http://www.w3.org/2000/svg" viewBox="0 0 26 26" fill="#fff"><path d="M15 0L0 3v20l15 3zm1 6v1.813h.406c.102 0 .188-.008.188.094l1.313 1.281c.102.102.102.211 0 .313l-.5.5c-.102.102-.211.102-.312 0l-.594-.594H16v3.5c.898.801 1.707 1.387 1.406 1.688-.102.199-.707-.102-1.406-.5v3.594h.188c1.602-1.199 2.914-3.398 3.313-3 .5.398-2.695 4.625-3.094 4.625H16V21h8.688A1.35 1.35 0 0 0 26 19.688V7.313A1.35 1.35 0 0 0 24.688 6zm-6.094.406v2.188L6.5 8.813v2.5l3.094-.125v2.219H6.5V16l3.594.188v2.219l-5.687-.5V7zM20.5 7.813h3.406c.199 0 .281.082.281.281v3.219c0 .102.008.188-.094.188l-1.281 1.313c-.102.102-.211.102-.312 0l-.5-.406c-.102-.102-.102-.211 0-.312l.594-.594V9.406h-1.781c-1.602 1.199-2.914 3.398-3.312 3-.5-.398 2.602-4.492 3-4.594zm-.687 4.625c.793-.059 4.5 2.781 4.5 3.063v2.094h-.125v1.313c0 .199-.082.281-.281.281h-3.219c-.102 0-.187.008-.187-.094l-1.312-1.281c-.102-.102-.102-.211 0-.312l.5-.5c.102-.102.211-.102.313 0l.594.594h2.094v-1.781c-1.199-1.602-3.398-2.914-3-3.312.023-.031.074-.059.125-.062z"/></svg>