<svg xmlns="http://www.w3.org/2000/svg" viewBox="0 0 172 172"><path d="M86 17.2c-37.995 0-68.8 30.805-68.8 68.8 0 32.239 22.199 59.214 52.127 66.679-.321-.929-.527-2.007-.527-3.343v-11.759h-8.646c-4.707 0-8.892-2.024-10.922-5.785-2.253-4.18-2.643-10.572-8.227-14.482-1.657-1.301-.396-2.786 1.514-2.586 3.526.998 6.45 3.417 9.202 7.006 2.741 3.595 4.031 4.409 9.15 4.409 2.483 0 6.198-.143 9.695-.694 1.881-4.776 5.131-9.173 9.105-11.249-22.91-2.356-33.844-13.754-33.844-29.229 0-6.662 2.838-13.106 7.66-18.536-1.582-5.389-3.572-16.38.608-20.565 10.309 0 16.541 6.685 18.037 8.491 5.137-1.76 10.779-2.758 16.707-2.758 5.94 0 11.604.998 16.753 2.769 1.479-1.795 7.717-8.503 18.049-8.503 4.197 4.191 2.184 15.228.585 20.606 4.793 5.418 7.614 11.845 7.614 18.496 0 15.463-10.916 26.855-33.792 29.223 6.295 3.285 10.888 12.516 10.888 19.47v15.675c0 .596-.132 1.026-.201 1.537C135.542 141.476 154.8 116.02 154.8 86c0-37.995-30.805-68.8-68.8-68.8z" fill="#fff"/></svg>