<svg xmlns="http://www.w3.org/2000/svg" viewBox="0 0 26 26" fill="#fff"><path d="M15 0L0 2.875v20.25L15 26zm1 3v2.969h4.031V8H16v2h4v2h-4v2h4v2h-4v2h4v2h-4v3h6.156c.461 0 .844-.395.844-.875V9h2.156c.461 0 .844-.395.844-.875v-4.25c0-.48-.383-.875-.844-.875zM3 7.938h2.156l3.531 6.125c.16.273.301.574.438.844h.031c-.031-.234-.062-.719-.062-1.406V7.938H11V18H8.969l-3.656-6.312-.437-.844h-.031l.063 1.625V18H3zM24 10v6h1.156c.461 0 .844-.395.844-.875v-4.25c0-.48-.383-.875-.844-.875zm0 7v6h1.156c.461 0 .844-.395.844-.875v-4.25c0-.48-.383-.875-.844-.875z"/></svg>