<svg xmlns="http://www.w3.org/2000/svg" viewBox="0 0 26 26" fill="#fff"><path d="M15 0L0 2.875v20.25L15 26zm1 3v3.844l2.781 2.281L25 4.313V3zm9 3.094l-6.219 4.813L16 8.625V16h2.625a4.62 4.62 0 0 1 3.875-2.125 4.58 4.58 0 0 1 2.5.75zM7.5 7.875c1.289 0 2.328.453 3.125 1.375s1.188 2.145 1.188 3.656c0 1.555-.395 2.801-1.219 3.75s-1.922 1.438-3.25 1.438c-1.293 0-2.344-.453-3.156-1.375s-1.219-2.145-1.219-3.625c0-1.562.422-2.816 1.25-3.781S6.137 7.875 7.5 7.875zm-.062 1.906c-.715 0-1.266.289-1.687.875S5.125 12.035 5.125 13c0 .98.203 1.742.625 2.313s.977.844 1.656.844c.699 0 1.246-.258 1.656-.812s.625-1.328.625-2.312c0-1.023-.195-1.805-.594-2.375s-.965-.875-1.656-.875zM22.5 15a3.5 3.5 0 1 0 0 7 3.5 3.5 0 1 0 0-7zm-.5 1h1v2h2v1h-3z"/></svg>