<svg xmlns="http://www.w3.org/2000/svg" viewBox="0 0 26 26" fill="#fff"><path d="M15 0L0 2.875v20.25L15 26zm1 3v4.25c.602-.32 1.273-.531 2-.531V11h4.281A4.29 4.29 0 0 1 18 15.281c-.727 0-1.398-.211-2-.531V18h5v2h-5v3h9.156c.461 0 .844-.395.844-.875V3.875c0-.48-.383-.875-.844-.875zm3 2.719A4.29 4.29 0 0 1 23.281 10H19zM3.875 7.938h3.563c2.555 0 3.844 1.066 3.844 3.219 0 1.016-.363 1.871-1.094 2.5s-1.711.938-2.937.938H6.156v3.469H3.875zm2.281 1.75v3.156h.906c1.215 0 1.813-.527 1.813-1.594 0-1.043-.598-1.562-1.812-1.562z"/></svg>