<svg xmlns="http://www.w3.org/2000/svg" viewBox="0 0 26 26" fill="#fff"><path d="M15 0L0 2.875v20.25L15 26zm2 4c-.352 0-.687.074-1 .188v5.625c.313.113.648.188 1 .188 1.109 0 2.074-.605 2.594-1.5a5.13 5.13 0 0 1 1.906 1.906c-.895.52-1.5 1.484-1.5 2.594s.605 2.074 1.5 2.594a5.13 5.13 0 0 1-1.906 1.906c-.52-.895-1.484-1.5-2.594-1.5-.352 0-.687.074-1 .188v5.625A3.03 3.03 0 0 0 17 22c1.613 0 2.934-1.277 3-2.875A6.88 6.88 0 0 0 23.125 16C24.723 15.934 26 14.613 26 13s-1.277-2.934-2.875-3A6.88 6.88 0 0 0 20 6.875C19.934 5.277 18.613 4 17 4zM7.375 7.875c.516 0 .977.031 1.375.094s.758.152 1.094.281v2.063A3.22 3.22 0 0 0 9.313 10a4.93 4.93 0 0 0-.625-.219c-.207-.059-.391-.098-.594-.125s-.41-.031-.594-.031c-.254 0-.48.016-.687.063s-.391.133-.531.219-.234.191-.312.313-.125.254-.125.406c0 .164.039.305.125.438s.215.258.375.375.363.23.594.344l.781.344c.395.164.746.344 1.063.531s.586.391.813.625.379.512.5.813.188.66.188 1.063c0 .551-.102 1-.312 1.375s-.484.676-.844.906-.773.398-1.25.5-1.004.156-1.531.156c-.543 0-1.043-.031-1.531-.125s-.922-.254-1.281-.437v-2.187a4.25 4.25 0 0 0 1.313.75c.469.168.926.25 1.406.25.281 0 .539-.012.75-.062s.391-.129.531-.219.246-.191.313-.312.094-.266.094-.406c0-.191-.047-.379-.156-.531s-.277-.277-.469-.406-.426-.258-.687-.375l-.844-.375c-.773-.32-1.34-.691-1.719-1.156S3.5 11.469 3.5 10.813c0-.516.105-.973.313-1.344s.488-.668.844-.906a3.75 3.75 0 0 1 1.219-.531c.469-.113.977-.156 1.5-.156z"/></svg>