<svg xmlns="http://www.w3.org/2000/svg" viewBox="0 0 172 172"><path d="M99.076 154.014l6.615-87.861h20.828c2.171 0 3.799-1.059 5.427-3.178.543-2.119.543-4.238-.543-5.814-15.195-21.707-40.648-42.354-41.734-42.871-1.034-.517-2.584-1.008-3.669-1.034-.026 0-.078-.026-.103-.026-1.085 0-2.713.517-3.256 1.059-1.085.517-26.617 20.647-41.811 42.871-1.085 2.119-1.628 4.238-.543 5.814 1.085 2.119 2.713 3.178 4.884 3.178h20.828l6.615 87.861c2.119 2.636 7.442 4.755 13.282 4.755 5.272 0 11.06-1.576 13.179-4.755z" fill="#fff"/></svg>