<svg xmlns="http://www.w3.org/2000/svg" viewBox="0 0 26 26" fill="#fff"><path d="M15 0L0 2.875v20.25L15 26zm1 3v2.969h7.031V8H16v2h7v2h-7v2h7v2h-7v2h7v2h-7v3h9.156c.461 0 .844-.395.844-.875V3.875c0-.48-.383-.875-.844-.875zM1.969 7.938h1.906L5 14.688c.047.285.07.672.094 1.156h.031a7.36 7.36 0 0 1 .156-1.187l1.438-6.719h1.875l1.313 6.813c.047.25.09.586.125 1.063.016-.371.063-.742.125-1.125l1.094-6.75h1.781l-2.094 10.125H9l-1.312-6.5c-.07-.34-.109-.707-.125-1.125h-.031l-.125 1.125-1.344 6.5H4.031z"/></svg>