<svg xmlns="http://www.w3.org/2000/svg" viewBox="0 0 26 26" fill="#fff"><path d="M5.867 2.297c-.012.008-.023.02-.035.031.074-.078.18-.16.246-.207C8.094.813 10.422.113 13.004.113c2.414 0 4.676.668 6.605 1.828.141.082.523.344.719.582-1.863-2.055-7.34 2.355-7.34 2.355-1.891-1.461-3.633-2.457-4.93-2.812-1.086-.297-1.836-.047-2.191.23zm16.57 1.941l-.176-.187c-.469-.516-1.047-.641-1.57-.609-.477.152-2.672.941-5.375 3.496 0 0 3.043 2.961 4.91 5.988s2.977 5.406 2.293 8.707c2.078-2.285 3.344-5.32 3.344-8.656a12.8 12.8 0 0 0-3.426-8.738zm-4.648 9.98l-3.676-3.871-1.125-1.102-1.363 1.375v-.004l-2.98 3.063c-1.266 1.352-4.895 5.594-5.098 7.973 0 0-.809-1.887.965-6.238 1.156-2.848 4.652-7.117 6.113-8.512 0 0-1.336-1.465-3.008-2.48l-.012-.004s-.02-.016-.047-.031c-.805-.48-1.687-.852-2.531-.902-.863.063-1.41.695-1.41.695a12.81 12.81 0 0 0-3.48 8.801c0 7.105 5.758 12.863 12.867 12.863 3.77 0 7.16-1.625 9.516-4.211 0-.004-.27-1.699-2-4.133-.41-.57-1.895-2.348-2.73-3.281z"/></svg>