<svg xmlns="http://www.w3.org/2000/svg" width="884" height="1279" fill="none"><g fill="#0d0c22"><path d="M791.109 297.518l-.878-.516-2.03-.619c.817.689 1.839 1.089 2.908 1.135h0zm12.787 91.373l-.98.275.98-.275z"/><path d="M791.484 297.377c-.125-.016-.247-.045-.366-.087a1.42 1.42 0 0 0 0 .244.74.74 0 0 0 .366-.157h0z"/><path d="M791.113 297.529h.131v-.082l-.131.082zm11.998 91.197l1.48-.843.551-.31.499-.533c-.939.404-1.795.976-2.53 1.686h0zm-9.442-89.211l-1.446-1.377-.98-.533c.527.93 1.398 1.616 2.426 1.91h0zm-363.65 886.665a7.55 7.55 0 0 0-2.943 2.27l.912-.58 2.031-1.69zm211.168-41.55c0-1.3-.636-1.06-.482 3.58 0-.37.155-.75.224-1.11l.258-2.47zm-21.903 41.55c-1.155.5-2.166 1.28-2.942 2.27l.912-.58c.619-.57 1.497-1.24 2.03-1.69zm-337.98 9.88a6.3 6.3 0 0 0-3.097-1.45l2.477 1.24.62.21zm-33.463-32.05c-.137-1.35-.553-2.66-1.222-3.85.474 1.23.87 2.5 1.187 3.78l.035.07z"/></g><path d="M472.623 590.836c-45.941 19.667-98.077 41.966-165.647 41.966-28.266-.056-56.396-3.934-83.623-11.528l46.733 479.806c1.654 20.05 10.79 38.75 25.593 52.38a80.18 80.18 0 0 0 54.313 21.19l88.373 3.44c23.796 0 95.151-3.44 95.151-3.44 20.12 0 39.503-7.57 54.303-21.2a80.15 80.15 0 0 0 25.587-52.37l50.053-530.204c-22.368-7.639-44.943-12.715-70.391-12.715-44.014-.017-79.477 15.142-120.445 32.675z" fill="#fff"/><g fill="#0d0c22"><path d="M78.689 386.132l.791.74.516.31a7.95 7.95 0 0 0-1.308-1.05h0z"/><path d="M879.567 341.849l-7.037-35.497c-6.315-31.849-20.648-61.943-53.34-73.454-10.479-3.683-22.369-5.265-30.404-12.888s-10.41-19.46-12.268-30.438l-10.204-60.429c-3.045-17.293-5.454-36.719-13.386-52.583-10.324-21.302-31.746-33.759-53.048-42.001-10.915-4.075-22.054-7.521-33.363-10.324-53.22-14.04-109.175-19.202-163.926-22.145C436.875-1.536 370.983-.443 305.422 5.36c-48.797 4.439-100.193 9.808-146.564 26.687-16.948 6.177-34.413 13.593-47.3 26.687-15.813 16.088-20.975 40.969-9.43 61.031 8.208 14.247 22.111 24.313 36.857 30.972a298.95 298.95 0 0 0 59.844 19.478c57.297 12.664 116.642 17.636 175.178 19.753a1333.99 1333.99 0 0 0 194.433-6.35c15.968-1.755 31.907-3.86 47.817-6.314 18.738-2.874 30.765-27.376 25.242-44.445-6.608-20.406-24.365-28.321-44.444-25.241l-8.862 1.324-2.133.31-20.407 2.409c-14.052 1.514-28.138 2.753-42.259 3.717-31.626 2.202-63.337 3.217-95.031 3.269-31.144 0-62.305-.878-93.38-2.925a1187.38 1187.38 0 0 1-42.431-3.545l-19.219-2.168-6.092-.774-1.324-.189-6.315-.912c-12.905-1.945-25.81-4.181-38.577-6.883a5.8 5.8 0 0 1-4.543-5.661 5.8 5.8 0 0 1 4.543-5.661h.241c11.064-2.357 22.213-4.37 33.397-6.126l11.219-1.721h.103c7.003-.465 14.041-1.721 21.009-2.547 60.63-6.306 121.62-8.457 182.544-6.435 29.577.86 59.138 2.598 88.578 5.592l18.927 2.116 7.262.929 4.886.705a678.06 678.06 0 0 1 42.517 7.726c20.889 4.543 47.714 6.022 57.005 28.907 2.96 7.261 4.302 15.331 5.936 22.953l2.082 9.722a3.37 3.37 0 0 1 .121.533l14.78 68.826a12.61 12.61 0 0 1 .025 5.144c-.345 1.699-1.036 3.307-2.031 4.727a12.61 12.61 0 0 1-3.749 3.522 12.62 12.62 0 0 1-4.844 1.732h-.138l-3.011.413-2.976.395-28.322 3.442a1829.31 1829.31 0 0 1-55.938 5.506c-37.109 3.085-74.292 5.11-111.55 6.074l-56.936.705c-75.519-.059-150.973-4.449-225.989-13.146l-24.365-3.045c6.298.809-4.577-.62-6.779-.929l-15.486-2.254c-17.327-2.599-34.55-5.799-51.843-8.604-20.906-3.441-40.899-1.72-59.809 8.604-15.522 8.494-28.085 21.519-36.013 37.338-8.156 16.862-10.582 35.221-14.23 53.34s-9.326 37.613-7.175 56.213c4.629 40.143 32.692 72.766 73.059 80.062 37.975 6.882 76.156 12.457 114.44 17.206 150.39 18.419 302.323 20.622 453.184 6.573l36.804-3.751c3.827-.42 7.699.02 11.333 1.29s6.938 3.337 9.67 6.049 4.822 6.001 6.118 9.625 1.766 7.494 1.373 11.323l-58.037 565.075c-2.203 21.84-2.512 44.36-6.659 65.94-6.539 33.93-29.509 54.77-63.027 62.39a439.17 439.17 0 0 1-93.569 10.94c-34.912.19-69.806-1.36-104.718-1.17-37.27.21-82.918-3.23-111.687-30.97-25.277-24.36-28.77-62.51-32.211-95.5l-56.11-538.61c-1.962-18.737-15.228-37.079-36.134-36.133-17.894.791-38.232 16.002-36.133 36.133l62.717 602.02c7.864 71.65 62.58 110.26 130.339 121.13 39.575 6.37 80.113 7.68 120.273 8.33 51.482.83 103.48 2.81 154.118-6.52 75.038-13.77 131.337-63.87 139.372-141.59l66.022-643.867a25.8 25.8 0 0 1 6.64-14.785 25.81 25.81 0 0 1 14.145-7.911c21.456-4.181 41.967-11.322 57.229-27.651 24.295-25.998 29.13-59.895 20.544-94.067zM72.43 365.835c.327-.155-.275 2.649-.533 3.957-.052-1.979.052-3.734.533-3.957zm2.082 16.105c.172-.121.688.568 1.222 1.394-.809-.758-1.325-1.325-1.239-1.394h.017zm2.048 2.701c.74 1.256 1.136 2.048 0 0h0zm4.112 3.338h.103c0 .121.189.241.258.362-.114-.133-.241-.254-.379-.362h.017zm720.124-4.99c-7.708 7.33-19.323 10.737-30.8 12.441-128.704 19.099-259.283 28.769-389.399 24.502-93.121-3.183-185.261-13.525-277.453-26.55-9.034-1.273-18.824-2.925-25.036-9.584-11.7-12.561-5.953-37.854-2.908-53.03 2.787-13.903 8.121-32.434 24.657-34.413 25.81-3.028 55.783 7.863 81.318 11.735a1539.8 1539.8 0 0 0 92.57 11.27c132.18 12.045 266.58 10.169 398.175-7.45 23.985-3.224 47.885-6.969 71.699-11.236 21.216-3.803 44.737-10.943 57.556 11.029 8.792 14.97 9.962 34.998 8.603 51.912a28.94 28.94 0 0 1-8.999 19.374h.017z"/></g></svg>